<?xml version="1.0" encoding="UTF-8"?>
<svg xmlns="http://www.w3.org/2000/svg" id="Layer_1" data-name="Layer 1" viewBox="0 0 500 500">
  <defs>
    <style>.cls-1,.cls-2{fill:#007074;}.cls-2{stroke:#007074;stroke-linecap:round;stroke-linejoin:round;stroke-width:7.61px;}</style>
  </defs>
  <g id="aUgt6D.tif">
    <path class="cls-1" d="M343.77,250.29c.42,51.2-42,93.64-93.8,93.51-50.29-.12-93.64-40.31-93.54-93.88a93.67,93.67,0,1,1,187.34.37Z"></path>
    <path class="cls-2" d="M78,245.35c10.74.05,21.48.31,32.22.47,4.24.06,6.76,1.65,6.69,4.24s-2.86,4.38-6.79,4.44c-6,.08-12.08,0-18.12.07q-27.15.33-54.32.73c-7,.11-13.9.43-20.85.46-4,0-6.63-2.94-6.07-6.41a5.42,5.42,0,0,1,5.54-4.73c2.76-.09,5.53,0,8.29,0C24.58,244.84,60.19,245.27,78,245.35Z"></path>
    <path class="cls-2" d="M483.57,244.56c3.62,0,5.62,1.93,5.75,5.33s-1.9,5.56-5.41,5.8c-2.85.2-5.72.1-8.59.07q-22.68-.28-45.36-.61-20.08-.28-40.16-.62c-.41,0-.82,0-1.22-.06-3.21-.35-5.13-1.93-5.16-4.24s1.9-3.92,5.11-4.28c.61-.07,1.22-.07,1.84-.08q32.49-.36,65-.71C461.29,245.1,480.09,244.52,483.57,244.56Z"></path>
    <path class="cls-2" d="M245.28,426.89c.07-12.47.35-24.93.56-37.4,0-1-.17-2.32.36-3,1-1.23,2.45-2.85,3.74-2.88s3.17,1.5,3.68,2.78a19.23,19.23,0,0,1,.87,6.63c.12,10.22.06,20.45.18,30.67q.24,21,.64,42c.09,5.31.38,10.62.47,15.92s-1.63,7.6-5.35,7.67c-4.05.07-5.83-2.23-5.83-7.52C244.6,480.14,245.18,443.55,245.28,426.89Z"></path>
    <path class="cls-2" d="M244.58,16.21A5.31,5.31,0,0,1,249,10.78a5.36,5.36,0,0,1,6.19,3.86,26.46,26.46,0,0,1,.53,6.67q-.24,23.33-.59,46.63-.3,21.32-.64,42.64c0,1.11.08,2.56-.55,3.25-1.11,1.24-2.73,2.76-4.15,2.77-1.14,0-2.78-1.84-3.31-3.22a16.76,16.76,0,0,1-.62-5.74c-.27-22.3-.47-44.6-.77-66.89C245.05,35.84,244.5,19.49,244.58,16.21Z"></path>
    <path class="cls-2" d="M135.16,180.37c.13,4.12-3.1,5.85-6.2,4.21-5.61-3-11.15-6.05-16.69-9.13l-66-36.64c-3.75-2.09-4.94-4.11-4-6.93,1.23-3.89,4.81-5.21,8.6-3,8.92,5.23,17.78,10.54,26.66,15.83q27.17,16.16,54.29,32.38A17.72,17.72,0,0,1,135.16,180.37Z"></path>
    <path class="cls-2" d="M368.33,314.45c2,.85,3.42,1.34,4.75,2.08q34.23,19,68.43,38l12.86,7.18c3.68,2.05,4.72,4.9,2.94,8s-4.53,3.66-8.39,1.37q-30.74-18.29-61.45-36.59-9.75-5.81-19.51-11.62c-2.07-1.24-3.75-2.9-2.57-5.48C365.93,316.19,367.34,315.39,368.33,314.45Z"></path>
    <path class="cls-2" d="M48,372.7c-3.38-.22-4.9-1.85-5.67-4.29a4.74,4.74,0,0,1,2.41-6c6.66-3.81,13.37-7.52,20.06-11.27q30.39-17,60.78-34c1.42-.79,2.9-2,4.4-2s3.67.61,4.32,1.7,0,3.19-.57,4.62c-.36.87-1.71,1.36-2.68,1.94q-39.59,23.78-79.21,47.5A36.84,36.84,0,0,1,48,372.7Z"></path>
    <path class="cls-2" d="M319.62,365a14.38,14.38,0,0,1,3,2.92c6.1,9.93,12.07,19.93,18.06,29.93q14.88,24.86,29.75,49.74c.47.79,1,1.57,1.39,2.38,1.49,2.86.76,5.53-1.9,7.13a5.1,5.1,0,0,1-7.26-1.58c-2.47-4-4.72-8.13-7-12.24Q335.82,407.87,316,372.4C313.84,368.55,315.06,365.15,319.62,365Z"></path>
    <path class="cls-2" d="M134.46,458.25c-5.75,0-8.05-4.63-5.52-8.95,4.39-7.5,8.86-14.95,13.3-22.42q17-28.59,34.06-57.18c.68-1.14,1.23-2.64,2.26-3.21a6.75,6.75,0,0,1,4.62-.89c2,.58,2.46,2.59,1.84,4.59a14.23,14.23,0,0,1-1.28,2.78q-22.8,41-45.7,82C137.15,456.52,135.25,457.55,134.46,458.25Z"></path>
    <path class="cls-2" d="M185.78,131.64c-.93,1.1-1.61,2.6-2.7,3a5.22,5.22,0,0,1-3.91-.54,8.36,8.36,0,0,1-2.42-3.08Q152.85,91.18,129,51.31c-2.23-3.73-1.76-6.42,1.45-8.35,3-1.83,5.81-.76,8,3.08Q161,86.29,183.52,126.55C184.35,128,184.92,129.67,185.78,131.64Z"></path>
    <path class="cls-2" d="M372.6,47.63a16.41,16.41,0,0,1-1.08,2.73q-24.34,41-48.75,82c-1.65,2.77-3.73,3.55-5.79,2.44-2.23-1.2-2.69-3.52-1.11-6.37q21.48-38.75,43-77.46c1.29-2.32,2.54-4.67,4-6.89a4.37,4.37,0,0,1,5.66-1.72A5.66,5.66,0,0,1,372.6,47.63Z"></path>
    <path class="cls-2" d="M368.79,185.75c-1.1-.81-2.64-1.39-3.13-2.46a5.32,5.32,0,0,1,.27-3.94c.47-1,1.75-1.67,2.78-2.29q39.89-23.91,79.81-47.79c3.68-2.2,5.94-2.13,8,.15,2.66,3,1.82,6.78-2,8.9l-37.53,21Q394.89,171.63,372.78,184C371.64,184.61,370.39,185.05,368.79,185.75Z"></path>
  </g>
</svg>
